<svg width="56" height="56" viewBox="0 0 56 56" fill="none" xmlns="http://www.w3.org/2000/svg">
<g clip-path="url(#clip0)">
<path d="M28.0001 54.7998C25.7479 54.7998 23.7294 53.7676 22.3952 52.148H33.6049C32.2707 53.7676 30.2522 54.7998 28.0001 54.7998Z" stroke="#FF5C01" stroke-width="2.4"/>
<path d="M33.0864 4.79621C31.4589 4.37469 29.7541 4.15026 27.9996 4.15026C26.2452 4.15026 24.541 4.37404 22.9145 4.79421C23.5371 2.71811 25.4663 1.2 27.7417 1.2H28.2587C30.5348 1.2 32.4644 2.71908 33.0864 4.79621Z" stroke="#FF5C01" stroke-width="2.4"/>
<path d="M7.30543 45.6186L7.22766 45.6545C7.07628 45.7245 6.96925 45.8881 7.0206 46.1297L7.30543 45.6186ZM7.30543 45.6186L7.3773 45.572M7.30543 45.6186L7.3773 45.572M7.3773 45.572C7.73254 45.3416 9.12141 44.3015 10.4574 41.4783C12.8625 36.3965 13.3337 29.3689 13.3337 24.5028C13.3337 16.417 19.9139 9.83696 27.9996 9.83696C36.0662 9.83696 42.6343 16.3853 42.6655 24.4445L42.6656 24.4641M7.3773 45.572L42.6656 24.4641M42.6656 24.4641L42.6663 24.4837M42.6656 24.4641L42.6663 24.4837M42.6663 24.4837C42.6666 24.4921 42.6667 24.4984 42.6667 24.5028C42.6667 29.3689 43.1378 36.3965 45.5429 41.4783C46.8788 44.3011 48.2676 45.3418 48.6238 45.5725L48.6954 45.6188M42.6663 24.4837L48.6954 45.6188M48.6954 45.6188L48.7727 45.6545M48.6954 45.6188L48.7727 45.6545M48.7727 45.6545C48.9242 45.7245 49.0312 45.8881 48.9798 46.1297L48.9798 46.1297M48.7727 45.6545L48.9798 46.1297M48.9798 46.1297C48.9477 46.2805 48.7721 46.4615 48.5056 46.4615H7.49477M48.9798 46.1297L7.49477 46.4615M7.49477 46.4615C7.22832 46.4615 7.05269 46.2805 7.02061 46.1298L7.49477 46.4615Z" stroke="#FF5C01" stroke-width="2.4"/>
</g>
<defs>
<clipPath id="clip0">
<rect width="56" height="56" fill="white"/>
</clipPath>
</defs>
</svg>
