<svg width="56" height="56" viewBox="0 0 56 56" fill="none" xmlns="http://www.w3.org/2000/svg">
<path d="M22.6229 8.37991C23.7386 2.67024 31.9208 2.67024 33.0365 8.37991C33.7154 11.8543 37.5513 13.6987 40.6954 12.0624C45.8622 9.3733 50.9637 15.7601 47.1882 20.1909C44.8907 22.8871 45.8381 27.0313 49.0798 28.4653C54.407 30.8218 52.5863 38.786 46.7625 38.6014C43.2187 38.4891 40.5641 41.8125 41.4624 45.2369C42.9385 50.8645 35.5666 54.4089 32.0801 49.7479C29.9585 46.9117 25.7009 46.9117 23.5793 49.7479C20.0927 54.4089 12.7209 50.8645 14.197 45.2369C15.0952 41.8125 12.4406 38.4891 8.8968 38.6014C3.07306 38.786 1.25235 30.8218 6.57957 28.4653C9.82126 27.0313 10.7687 22.8871 8.47118 20.1909C4.69561 15.7601 9.79711 9.3733 14.9639 12.0624C18.108 13.6987 21.944 11.8543 22.6229 8.37991Z" stroke="#FF5C01" stroke-width="2.4"/>
<path d="M35.2977 28.955C35.2977 33.0728 31.9541 36.411 27.8297 36.411C23.7052 36.411 20.3617 33.0728 20.3617 28.955C20.3617 24.8371 23.7052 21.4989 27.8297 21.4989C31.9541 21.4989 35.2977 24.8371 35.2977 28.955Z" stroke="#FF5C01" stroke-width="2.4"/>
</svg>
