<svg width="20" height="20" viewBox="0 0 20 20" fill="none" xmlns="http://www.w3.org/2000/svg">
<g clip-path="url(#clip0)">
<path d="M3.11699 6.10266C3.11699 4.31588 4.47924 2.93212 6.06754 2.93212C7.65588 2.93212 9.01813 4.31589 9.01813 6.10266C9.01813 7.88943 7.65585 9.27321 6.06754 9.27321C4.47924 9.27321 3.11699 7.88944 3.11699 6.10266Z" stroke="#FF5C01" stroke-width="1.4"/>
<path d="M11.7 6C11.7 4.73239 12.7324 3.7 14 3.7C15.2676 3.7 16.3 4.7324 16.3 6C16.3 7.2676 15.2676 8.3 14 8.3C12.7324 8.3 11.7 7.26761 11.7 6Z" stroke="#FF5C01" stroke-width="1.4"/>
<path d="M11.4244 16.7417L11.4245 16.7429C11.4313 16.85 11.4347 16.9584 11.4348 17.0679H0.7C0.700844 14.2048 3.02188 11.8843 5.88516 11.8843C5.88516 11.8843 5.88516 11.8843 5.88517 11.8843H6.25C7.41102 11.8843 8.48086 12.265 9.34418 12.9084L9.34425 12.9085C10.5329 13.7942 11.3271 15.1742 11.4244 16.7417Z" stroke="#FF5C01" stroke-width="1.4"/>
<path fill-rule="evenodd" clip-rule="evenodd" d="M16.9259 12.2855L16.9258 12.2854C16.1793 11.729 15.2552 11.4 14.2499 11.4H13.8851C13.8851 11.4 13.8851 11.4 13.8851 11.4C13.4656 11.4 13.0976 11.4089 12.785 11.4279L13.3281 13.0572L13.3318 13.0681L13.3317 13.0681L14.0178 15.1836H18.5628C18.3937 13.9503 17.8118 12.9456 16.9259 12.2855ZM19.9731 15.1836C19.9844 15.2882 19.9934 15.3937 20 15.5C20.0054 15.5856 20.0033 15.7344 20.0015 15.8589C20.0007 15.9129 20 15.9623 20 16V16.5836H18.6H13L12 13.5L11 10.5C11.1582 10.2608 11.6374 10.1281 12.3181 10.0606C12.3217 10.0603 12.3253 10.0599 12.3289 10.0596C12.7735 10.016 13.3032 10 13.8851 10H14.2499C15.5667 10 16.7824 10.4324 17.7624 11.1629C19.0293 12.1069 19.7943 13.5358 19.9731 15.1836ZM11.8637 11.5583C11.8644 11.558 11.8651 11.5577 11.8659 11.5575C11.8515 11.5644 11.8491 11.564 11.8637 11.5583Z" fill="#FF5C01"/>
</g>
<defs>
<clipPath id="clip0">
<rect width="20" height="20" fill="white"/>
</clipPath>
</defs>
</svg>
