<svg width="25" height="27" viewBox="0 0 25 27" fill="none" xmlns="http://www.w3.org/2000/svg">
<path fill-rule="evenodd" clip-rule="evenodd" d="M18.4583 6.45275C18.4583 2.88899 15.5693 0 12.0055 0C8.44175 0 5.55275 2.88899 5.55275 6.45275V6.57615C5.55275 7.0732 5.9557 7.47615 6.45275 7.47615C6.94981 7.47615 7.35275 7.0732 7.35275 6.57615V6.45275C7.35275 3.88311 9.43586 1.8 12.0055 1.8C14.5751 1.8 16.6583 3.88311 16.6583 6.45275V9.53761C16.6583 9.65561 16.681 9.7683 16.7222 9.87156H5.7L5.6623 9.87156C4.85425 9.87155 4.1934 9.87154 3.65632 9.91542C3.1004 9.96084 2.59833 10.0577 2.12944 10.2966C1.39561 10.6705 0.798982 11.2672 0.425076 12.001C0.186165 12.4699 0.0892824 12.972 0.0438625 13.5279C-1.78761e-05 14.0649 -9.83384e-06 14.7258 0 15.5338V15.5338V15.5339V15.5716V20.7789V20.8166V20.8166C-9.83375e-06 21.6247 -1.81224e-05 22.2855 0.0438625 22.8226C0.0892824 23.3785 0.186165 23.8806 0.425076 24.3495C0.798982 25.0833 1.39561 25.6799 2.12944 26.0538C2.59833 26.2927 3.10041 26.3896 3.65632 26.435C4.19337 26.4789 4.85419 26.4789 5.6622 26.4789H5.6623H5.7H18.311H18.3487H18.3488C19.1568 26.4789 19.8176 26.4789 20.3547 26.435C20.9106 26.3896 21.4127 26.2927 21.8816 26.0538C22.6154 25.6799 23.212 25.0833 23.5859 24.3495C23.8248 23.8806 23.9217 23.3785 23.9671 22.8226C24.011 22.2855 24.011 21.6247 24.011 20.8166V20.7789V15.5716V15.5339C24.011 14.7258 24.011 14.0649 23.9671 13.5279C23.9217 12.972 23.8248 12.4699 23.5859 12.001C23.212 11.2672 22.6154 10.6705 21.8816 10.2966C21.4127 10.0577 20.9106 9.96084 20.3547 9.91542C19.8277 9.87236 19.1816 9.87156 18.3943 9.87156C18.4355 9.7683 18.4583 9.65561 18.4583 9.53761V6.45275ZM3.8029 11.7094C3.3583 11.7458 3.11947 11.8124 2.94662 11.9004C2.55148 12.1018 2.23022 12.423 2.02889 12.8182C1.94082 12.991 1.87421 13.2299 1.83788 13.6745C1.8007 14.1296 1.8 14.7166 1.8 15.5716V20.7789C1.8 21.6338 1.8007 22.2209 1.83788 22.676C1.87421 23.1206 1.94082 23.3594 2.02889 23.5323C2.23022 23.9274 2.55148 24.2487 2.94662 24.45C3.11947 24.5381 3.3583 24.6047 3.8029 24.641C4.258 24.6782 4.84507 24.6789 5.7 24.6789H18.311C19.1659 24.6789 19.753 24.6782 20.2081 24.641C20.6527 24.6047 20.8915 24.5381 21.0644 24.45C21.4595 24.2487 21.7808 23.9274 21.9821 23.5323C22.0702 23.3594 22.1368 23.1206 22.1731 22.676C22.2103 22.2209 22.211 21.6338 22.211 20.7789V15.5716C22.211 14.7166 22.2103 14.1296 22.1731 13.6745C22.1368 13.2299 22.0702 12.991 21.9821 12.8182C21.7808 12.423 21.4595 12.1018 21.0644 11.9004C20.8915 11.8124 20.6527 11.7458 20.2081 11.7094C19.753 11.6723 19.1659 11.6716 18.311 11.6716H5.7C4.84507 11.6716 4.258 11.6723 3.8029 11.7094ZM13.2394 19.079C13.9771 18.6523 14.4734 17.8547 14.4734 16.9413C14.4734 15.5783 13.3685 14.4734 12.0055 14.4734C10.6425 14.4734 9.53761 15.5783 9.53761 16.9413C9.53761 17.8547 10.0339 18.6523 10.7716 19.079V21.2601C10.7716 21.9416 11.324 22.494 12.0055 22.494C12.687 22.494 13.2394 21.9416 13.2394 21.2601V19.079Z" fill="#FF5C01"/>
</svg>
