<svg width="20" height="21" viewBox="0 0 20 21" fill="none" xmlns="http://www.w3.org/2000/svg">
<g clip-path="url(#clip0)">
<g clip-path="url(#clip1)">
<path d="M18.3467 12.811C18.3467 13.9668 17.4116 14.9038 16.2582 14.9038H2.62273L5.37263 12.1483L4.38818 11.1618L0.449873 15.1082C0.178096 15.3807 0.178096 15.8222 0.449873 16.0947L4.38818 20.0411L5.37263 19.0546L2.62273 16.2991H16.2582C18.1796 16.2967 19.7367 14.7364 19.7391 12.811V10.0205H18.3467V12.811Z" fill="#A2A2A2"/>
<path d="M1.63828 7.23009C1.63828 6.07415 2.57327 5.13724 3.72684 5.13724H17.3623L14.6124 7.89279L15.5968 8.87926L19.5351 4.93286C19.8069 4.66036 19.8069 4.2189 19.5351 3.94639L15.5968 0L14.6124 0.98647L17.3623 3.74201H3.72684C1.80536 3.74423 0.24812 5.30466 0.245911 7.23009V10.0205H1.63828V7.23009Z" fill="#A2A2A2"/>
</g>
</g>
<defs>
<clipPath id="clip0">
<rect x="6.10352e-05" width="20" height="20.0411" fill="white"/>
</clipPath>
<clipPath id="clip1">
<rect x="0.000152588" width="20" height="20.0411" fill="white"/>
</clipPath>
</defs>
</svg>
