<svg width="16" height="16" viewBox="0 0 16 16" fill="none" xmlns="http://www.w3.org/2000/svg">
<g clip-path="url(#clip0)">
<path d="M13.4926 9.03619L12.2434 9.03619L12.2434 12.2164L9.06314 12.2164L9.06312 13.4657L12.2433 13.4657L12.2433 16.6459L13.4926 16.6459L13.4926 13.4657L16.6728 13.4657L16.6728 12.2164L13.4926 12.2164L13.4926 9.03619Z" fill="#FF5C01"/>
<path d="M7.99556 0.00463867C5.44675 0.00463867 3.37313 2.07826 3.37313 4.62708C3.37313 6.20583 4.16891 7.60201 5.38019 8.43626C4.24925 8.82651 3.21269 9.4712 2.34184 10.342C0.831688 11.8522 0 13.8601 0 15.9958H1.24931C1.24931 12.2759 4.27566 9.24951 7.99556 9.24951C10.5444 9.24951 12.618 7.17592 12.618 4.62708C12.618 2.07826 10.5444 0.00463867 7.99556 0.00463867ZM7.99556 8.0002C6.13562 8.0002 4.62244 6.48704 4.62244 4.62708C4.62244 2.76711 6.13562 1.25395 7.99556 1.25395C9.8555 1.25395 11.3687 2.76711 11.3687 4.62708C11.3687 6.48704 9.8555 8.0002 7.99556 8.0002Z" fill="#FF5C01"/>
</g>
<defs>
<clipPath id="clip0">
<rect width="16" height="16" fill="white"/>
</clipPath>
</defs>
</svg>
