<svg width="40" height="40" viewBox="0 0 40 40" fill="none" xmlns="http://www.w3.org/2000/svg">
<path d="M34.1422 5.85781C30.3646 2.08039 25.3422 0 20 0C14.6578 0 9.63539 2.08039 5.85781 5.85781C2.08039 9.63539 0 14.6578 0 20C0 25.3422 2.08039 30.3647 5.85781 34.1422C9.63539 37.9196 14.6578 40 20 40C25.3422 40 30.3646 37.9196 34.1422 34.1422C37.9196 30.3647 40 25.3422 40 20C40 14.6578 37.9196 9.63539 34.1422 5.85781ZM20 36.875C10.6951 36.875 3.125 29.3049 3.125 20C3.125 10.6951 10.6951 3.125 20 3.125C29.3049 3.125 36.875 10.6951 36.875 20C36.875 29.3049 29.3049 36.875 20 36.875Z" fill="#A2A2A2"/>
</svg>
