<svg width="14" height="14" viewBox="0 0 14 14" fill="none" xmlns="http://www.w3.org/2000/svg">
<path d="M6.99998 0C3.13251 0 0 3.13252 0 7C0 10.8675 3.13251 14 6.99998 14C10.8675 14 14 10.8675 14 7C14 3.13248 10.8675 0 6.99998 0ZM1.40001 7C1.40001 3.90601 3.906 1.39998 7.00002 1.39998C8.29503 1.39998 9.48153 1.84449 10.43 2.57949L2.57949 10.43C1.84449 9.48151 1.40001 8.29501 1.40001 7ZM6.99998 12.6C5.70497 12.6 4.51848 12.1555 3.57 11.4205L11.4205 3.57001C12.1555 4.51852 12.6 5.70502 12.6 7C12.6 10.094 10.094 12.6 6.99998 12.6Z" fill="#A2A2A2"/>
</svg>
