<svg width="28" height="28" viewBox="0 0 28 28" fill="none" xmlns="http://www.w3.org/2000/svg">
<path id="IconAnonymous" fill-rule="evenodd" clip-rule="evenodd" d="M5.26124 5.26093C7.5936 2.92874 10.697 1.6443 13.9999 1.6443C17.3032 1.6443 20.4067 2.92882 22.7391 5.26126C25.0712 7.59361 26.3557 10.6971 26.3557 14C26.3557 17.3032 25.0712 20.4068 22.7387 22.7391C22.4811 22.9967 22.2141 23.2415 21.9384 23.4732C21.6056 22.9367 21.2037 22.361 20.708 21.8233L21.0531 21.6903L20.9779 16.7511C20.9605 15.6002 20.9827 14.4329 21.0438 13.2818L21.4559 5.5511H6.30417L6.71606 13.2818V13.282C6.77731 14.4296 6.79951 15.5968 6.78208 16.7511L6.70718 21.6902L7.01959 21.8107C6.59257 22.2882 6.22898 22.8079 5.90053 23.3355C5.6815 23.145 5.46816 22.946 5.26091 22.7387C2.92864 20.4064 1.64428 17.3029 1.64428 14C1.64428 10.6968 2.92881 7.5932 5.26124 5.26093ZM7.21634 24.3347C9.21265 25.6499 11.5515 26.3557 13.9999 26.3557C16.3769 26.3557 18.6505 25.6905 20.6078 24.4483C20.1207 23.646 19.5102 22.8008 18.6603 22.1821L17.8841 21.8829L16.5495 22.3973L15.2146 21.8828L13.88 22.3973L12.5453 21.8829L11.2109 22.3973L9.87583 21.8828L8.95187 22.239C8.23903 22.7997 7.69189 23.5554 7.21634 24.3347ZM4.09816 23.9014C6.74104 26.5444 10.2575 28 14 28C17.7421 28 21.2585 26.5446 23.9014 23.9018C26.5444 21.2589 28 17.7424 28 14C28 10.2579 26.5446 6.74154 23.9018 4.09858C21.2589 1.45561 17.7424 0 14 0C10.2579 0 6.74154 1.45545 4.09858 4.09816C1.45553 6.74104 0 10.2576 0 14C0 17.7421 1.45545 21.2585 4.09816 23.9014ZM16.5494 20.6351L15.2144 20.1206L13.88 20.6351L12.5453 20.1206L11.2107 20.6351L9.87581 20.1206L8.54122 20.6351L8.36865 20.5686L8.4262 16.7759C8.44421 15.5842 8.42127 14.3792 8.35796 13.1942L8.03839 7.1954H19.7216L19.4019 13.1945C19.3388 14.3829 19.3159 15.5877 19.3337 16.776L19.3914 20.5685L19.2186 20.6351L17.8841 20.1206L16.5494 20.6351Z" fill="#FF5C01"/>
</svg>
