<svg width="87" height="14" viewBox="0 0 87 14" fill="none" xmlns="http://www.w3.org/2000/svg">
<path d="M0.515 11H6.725V10.07H1.55V6.155H5.555V5.225H1.55V1.385H6.44V0.455H0.515V11ZM7.69355 11H8.87855L10.7236 8.165C10.8586 7.955 10.9786 7.745 10.9786 7.745H11.0086C11.0086 7.745 11.1286 7.97 11.2636 8.165L13.0936 11H14.2936L11.6386 7.07L14.0686 3.455H12.8836L11.2636 5.99C11.1436 6.185 11.0086 6.425 11.0086 6.425H10.9786C10.9786 6.425 10.8436 6.185 10.7236 5.99L9.10355 3.455H7.90355L10.3336 7.07L7.69355 11ZM15.7863 14H16.8063V10.34C16.8063 9.95 16.7613 9.68 16.7613 9.68H16.7913C17.2863 10.625 18.2163 11.18 19.2813 11.18C21.2463 11.18 22.6563 9.62 22.6563 7.22C22.6563 4.895 21.4113 3.275 19.3713 3.275C18.2013 3.275 17.2113 3.86 16.7463 4.835H16.7163C16.7163 4.835 16.7613 4.58 16.7613 4.25V3.455H15.7863V14ZM16.7763 7.25C16.7763 5.105 17.9613 4.205 19.2213 4.205C20.6313 4.205 21.6213 5.39 21.6213 7.235C21.6213 9.155 20.5113 10.265 19.1763 10.265C17.6313 10.265 16.7763 8.765 16.7763 7.25ZM24.6193 9.215C24.6193 10.865 25.7443 11.06 26.3593 11.06C26.5243 11.06 26.6443 11.045 26.7343 11.03V10.115C26.6443 10.13 26.5543 10.13 26.4943 10.13C26.1043 10.13 25.6393 9.98 25.6393 8.99V0.455H24.6193V9.215ZM27.8007 7.19C27.8007 9.47 29.5707 11.18 31.7757 11.18C33.9807 11.18 35.7657 9.47 35.7657 7.19C35.7657 4.955 33.9807 3.275 31.7757 3.275C29.5707 3.275 27.8007 4.955 27.8007 7.19ZM28.8507 7.19C28.8507 5.48 30.1557 4.19 31.7757 4.19C33.3957 4.19 34.7157 5.48 34.7157 7.19C34.7157 8.96 33.3957 10.25 31.7757 10.25C30.1557 10.25 28.8507 8.96 28.8507 7.19ZM37.6711 11H38.6911V7.805C38.6911 6.305 39.3961 4.4 41.0911 4.4C41.2411 4.4 41.4211 4.415 41.4661 4.43V3.425C41.3461 3.395 41.1961 3.38 41.0611 3.38C39.8911 3.38 39.0211 4.31 38.6461 5.45H38.6161C38.6161 5.45 38.6761 5.18 38.6761 4.85V3.455H37.6711V11ZM42.2734 7.235C42.2734 9.56 43.9834 11.18 46.2334 11.18C47.2234 11.18 48.3184 10.775 49.0234 10.13L48.5584 9.35C47.9434 9.905 47.0884 10.25 46.2634 10.25C44.7034 10.25 43.3834 9.185 43.3384 7.265H49.1284C49.1434 7.1 49.1584 6.92 49.1584 6.755C49.1584 4.88 48.0934 3.275 46.0084 3.275C43.9684 3.275 42.2734 4.76 42.2734 7.235ZM43.3834 6.455C43.6234 4.94 44.7184 4.115 45.9784 4.115C47.1034 4.115 48.0634 4.88 48.1234 6.455H43.3834ZM55.1244 11H58.8444C60.6144 11 62.0094 9.92 62.0094 8.045C62.0094 6.785 61.3194 5.735 60.2394 5.435V5.405C61.0494 5 61.5744 4.205 61.5744 3.11C61.5744 1.46 60.3744 0.455 58.7244 0.455H55.1244V11ZM56.1594 5.03V1.385H58.6944C59.8194 1.385 60.5094 2.105 60.5094 3.185C60.5094 4.28 59.7894 5.03 58.7244 5.03H56.1594ZM56.1594 10.07V5.93H58.8444C60.0744 5.93 60.9294 6.755 60.9294 8.015C60.9294 9.275 60.1344 10.07 58.8594 10.07H56.1594ZM66.4774 11H67.5124V1.385H71.3074V0.455H62.6974V1.385H66.4774V11ZM73.0687 11H74.1037V6.275H77.9737V5.345H74.1037V1.385H78.6037V0.455H73.0687V11ZM79.6415 9.83C80.5115 10.7 81.7415 11.18 82.9565 11.18C84.9965 11.18 86.1815 9.905 86.1815 8.285C86.1815 4.895 80.9315 5.57 80.9315 3.035C80.9315 1.925 81.9365 1.265 83.1365 1.265C83.9765 1.265 84.8915 1.625 85.4615 2.165L85.9715 1.295C85.2515 0.62 84.1715 0.274999 83.1815 0.274999C81.3215 0.274999 79.8665 1.37 79.8665 3.095C79.8665 6.365 85.1165 5.735 85.1165 8.39C85.1165 9.485 84.2315 10.19 82.9865 10.19C81.9365 10.19 80.9165 9.68 80.2565 9.035L79.6415 9.83Z" fill="#1C1C1C"/>
</svg>
