<svg width="20" height="20" viewBox="0 0 20 20" fill="none" xmlns="http://www.w3.org/2000/svg">
<path d="M3.11699 6.10266C3.11699 4.31588 4.47924 2.93212 6.06754 2.93212C7.65588 2.93212 9.01813 4.31589 9.01813 6.10266C9.01813 7.88943 7.65585 9.27321 6.06754 9.27321C4.47924 9.27321 3.11699 7.88944 3.11699 6.10266Z" stroke="#FF5C01" stroke-width="1.4"/>
<path d="M12.6363 4.26375L12.6362 4.26379C12.1821 4.75856 11.9301 5.41617 11.9359 6.12273L12.6363 4.26375ZM12.6363 4.26375C13.097 3.76166 13.7028 3.49179 14.3466 3.48605L14.3671 3.48598C15.6634 3.48598 16.7913 4.60969 16.8034 6.08256C16.8093 6.78917 16.5573 7.44679 16.1032 7.94157L16.1031 7.94159M12.6363 4.26375L16.1031 7.94159M16.1031 7.94159C15.6424 8.44366 15.0366 8.71355 14.3929 8.71931L14.3719 8.71938C13.7349 8.71938 13.1316 8.45993 12.6668 7.96996L16.1031 7.94159ZM12.6668 7.96992C12.2046 7.48264 11.9418 6.82928 11.9359 6.12276L12.6668 7.96992Z" stroke="#FF5C01" stroke-width="1.4"/>
<path d="M14.5212 10.753H14.2181C13.2743 10.753 12.394 11.0278 11.6518 11.5023C11.6797 11.5294 11.7074 11.5567 11.7349 11.5842C12.4461 12.2954 13.0056 13.1255 13.3963 14.0494L14.5212 10.753ZM14.5212 10.753C17.1557 10.753 19.3001 12.8975 19.3001 15.5316V15.9984M14.5212 10.753L19.3001 15.9984M19.3001 15.9984H13.9336C13.8411 15.3289 13.6616 14.6764 13.3964 14.0495L19.3001 15.9984Z" stroke="#FF5C01" stroke-width="1.4"/>
<path d="M11.4244 16.7417L11.4245 16.7429C11.4313 16.85 11.4347 16.9584 11.4348 17.0679H0.7C0.700844 14.2048 3.02188 11.8843 5.88516 11.8843C5.88516 11.8843 5.88516 11.8843 5.88517 11.8843H6.25C7.41102 11.8843 8.48086 12.265 9.34418 12.9084L9.34425 12.9085C10.5329 13.7942 11.3271 15.1742 11.4244 16.7417Z" stroke="#FF5C01" stroke-width="1.4"/>
</svg>
